<?xml version="1.0" encoding="UTF-8" standalone="no"?>
<svg width="1200" height="950" xmlns="http://www.w3.org/2000/svg" style="background-color: #ffffff;">
    <defs>
        <marker id="arrow" viewBox="0 0 10 10" refX="8" refY="5" markerWidth="6" markerHeight="6" orient="auto-start-reverse">
            <path d="M 0 0 L 10 5 L 0 10 z" fill="#000000" />
        </marker>
    </defs>

    <!-- System Boundary -->
    <rect x="300" y="40" width="600" height="870" fill="none" stroke="#000000" stroke-width="2" />
    <text x="320" y="70" font-family="'Times New Roman', Georgia, serif" font-size="20px" font-weight="bold" fill="#000000">Sistem Web ULT FKIP Unila</text>

    <!-- ACTORS -->
    <g transform="translate(150, 300)">
        <circle cx="0" cy="-30" r="15" fill="#ffffff" stroke="#000000" stroke-width="2" />
        <line x1="0" y1="-15" x2="0" y2="25" fill="none" stroke="#000000" stroke-width="2" />
        <line x1="-25" y1="0" x2="25" y2="0" fill="none" stroke="#000000" stroke-width="2" />
        <line x1="0" y1="25" x2="-15" y2="55" fill="none" stroke="#000000" stroke-width="2" />
        <line x1="0" y1="25" x2="15" y2="55" fill="none" stroke="#000000" stroke-width="2" />
        <text x="0" y="85" font-family="'Times New Roman', Georgia, serif" font-size="22px" font-weight="bold" fill="#000000" text-anchor="middle">Mahasiswa</text>
    </g>

    <g transform="translate(150, 700)">
        <circle cx="0" cy="-30" r="15" fill="#ffffff" stroke="#000000" stroke-width="2" />
        <line x1="0" y1="-15" x2="0" y2="25" fill="none" stroke="#000000" stroke-width="2" />
        <line x1="-25" y1="0" x2="25" y2="0" fill="none" stroke="#000000" stroke-width="2" />
        <line x1="0" y1="25" x2="-15" y2="55" fill="none" stroke="#000000" stroke-width="2" />
        <line x1="0" y1="25" x2="15" y2="55" fill="none" stroke="#000000" stroke-width="2" />
        <text x="0" y="85" font-family="'Times New Roman', Georgia, serif" font-size="22px" font-weight="bold" fill="#000000" text-anchor="middle">Admin Utama</text>
    </g>

    <g transform="translate(1050, 150)">
        <circle cx="0" cy="-30" r="15" fill="#ffffff" stroke="#000000" stroke-width="2" />
        <line x1="0" y1="-15" x2="0" y2="25" fill="none" stroke="#000000" stroke-width="2" />
        <line x1="-25" y1="0" x2="25" y2="0" fill="none" stroke="#000000" stroke-width="2" />
        <line x1="0" y1="25" x2="-15" y2="55" fill="none" stroke="#000000" stroke-width="2" />
        <line x1="0" y1="25" x2="15" y2="55" fill="none" stroke="#000000" stroke-width="2" />
        <text x="0" y="85" font-family="'Times New Roman', Georgia, serif" font-size="22px" font-weight="bold" fill="#000000" text-anchor="middle">Staf ULT</text>
    </g>

    <g transform="translate(1050, 450)">
        <circle cx="0" cy="-30" r="15" fill="#ffffff" stroke="#000000" stroke-width="2" />
        <line x1="0" y1="-15" x2="0" y2="25" fill="none" stroke="#000000" stroke-width="2" />
        <line x1="-25" y1="0" x2="25" y2="0" fill="none" stroke="#000000" stroke-width="2" />
        <line x1="0" y1="25" x2="-15" y2="55" fill="none" stroke="#000000" stroke-width="2" />
        <line x1="0" y1="25" x2="15" y2="55" fill="none" stroke="#000000" stroke-width="2" />
        <text x="0" y="85" font-family="'Times New Roman', Georgia, serif" font-size="22px" font-weight="bold" fill="#000000" text-anchor="middle">Admin Jurusan</text>
    </g>

    <g transform="translate(1050, 750)">
        <circle cx="0" cy="-30" r="15" fill="#ffffff" stroke="#000000" stroke-width="2" />
        <line x1="0" y1="-15" x2="0" y2="25" fill="none" stroke="#000000" stroke-width="2" />
        <line x1="-25" y1="0" x2="25" y2="0" fill="none" stroke="#000000" stroke-width="2" />
        <line x1="0" y1="25" x2="-15" y2="55" fill="none" stroke="#000000" stroke-width="2" />
        <line x1="0" y1="25" x2="15" y2="55" fill="none" stroke="#000000" stroke-width="2" />
        <text x="0" y="85" font-family="'Times New Roman', Georgia, serif" font-size="22px" font-weight="bold" fill="#000000" text-anchor="middle">Pejabat (Signer)</text>
    </g>

    <!-- USE CASES -->
    <!-- MHS UC -->
    <g transform="translate(430, 110)">
        <ellipse cx="170" cy="30" rx="150" ry="28" fill="#ffffff" stroke="#000000" stroke-width="2" />
        <text x="170" y="36" font-family="'Times New Roman', Georgia, serif" font-size="18px" font-weight="bold" fill="#000000" text-anchor="middle">Mengajukan Permohonan</text>
    </g>
    <g transform="translate(430, 190)">
        <ellipse cx="170" cy="30" rx="150" ry="28" fill="#ffffff" stroke="#000000" stroke-width="2" />
        <text x="170" y="36" font-family="'Times New Roman', Georgia, serif" font-size="18px" font-weight="bold" fill="#000000" text-anchor="middle">Melacak Status (Timeline)</text>
    </g>
    <g transform="translate(430, 270)">
        <ellipse cx="170" cy="30" rx="150" ry="28" fill="#ffffff" stroke="#000000" stroke-width="2" />
        <text x="170" y="36" font-family="'Times New Roman', Georgia, serif" font-size="18px" font-weight="bold" fill="#000000" text-anchor="middle">Mengunduh Dokumen Hasil</text>
    </g>

    <!-- Admin Jurusan & Staf UC -->
    <g transform="translate(430, 350)">
        <ellipse cx="170" cy="30" rx="150" ry="28" fill="#ffffff" stroke="#000000" stroke-width="2" />
        <text x="170" y="36" font-family="'Times New Roman', Georgia, serif" font-size="18px" font-weight="bold" fill="#000000" text-anchor="middle">Pengecekan Pertama Berkas</text>
    </g>
    <g transform="translate(430, 430)">
        <ellipse cx="170" cy="30" rx="150" ry="28" fill="#ffffff" stroke="#000000" stroke-width="2" />
        <text x="170" y="36" font-family="'Times New Roman', Georgia, serif" font-size="18px" font-weight="bold" fill="#000000" text-anchor="middle">Penerbitan Nomor Otomatis</text>
    </g>
    <g transform="translate(430, 510)">
        <ellipse cx="170" cy="30" rx="150" ry="28" fill="#ffffff" stroke="#000000" stroke-width="2" />
        <text x="170" y="36" font-family="'Times New Roman', Georgia, serif" font-size="18px" font-weight="bold" fill="#000000" text-anchor="middle">Validasi Permohonan ULT</text>
    </g>
    <g transform="translate(430, 590)">
        <ellipse cx="170" cy="30" rx="150" ry="28" fill="#ffffff" stroke="#000000" stroke-width="2" />
        <text x="170" y="36" font-family="'Times New Roman', Georgia, serif" font-size="18px" font-weight="bold" fill="#000000" text-anchor="middle">Kelola Layanan &amp; Template</text>
    </g>
    <g transform="translate(430, 670)">
        <ellipse cx="170" cy="30" rx="150" ry="28" fill="#ffffff" stroke="#000000" stroke-width="2" />
        <text x="170" y="36" font-family="'Times New Roman', Georgia, serif" font-size="18px" font-weight="bold" fill="#000000" text-anchor="middle">Merakit Dokumen (Assembly)</text>
    </g>

    <!-- Signer -->
    <g transform="translate(430, 750)">
        <ellipse cx="170" cy="30" rx="150" ry="28" fill="#ffffff" stroke="#000000" stroke-width="2" />
        <text x="170" y="36" font-family="'Times New Roman', Georgia, serif" font-size="18px" font-weight="bold" fill="#000000" text-anchor="middle">Verifikasi &amp; TTD Elektronik</text>
    </g>

    <!-- Admin Utama -->
    <g transform="translate(430, 830)">
        <ellipse cx="170" cy="30" rx="150" ry="28" fill="#ffffff" stroke="#000000" stroke-width="2" />
        <text x="170" y="36" font-family="'Times New Roman', Georgia, serif" font-size="18px" font-weight="bold" fill="#000000" text-anchor="middle">Kelola Pengguna &amp; Hak Akses</text>
    </g>

    <!-- CONNECTIONS -->
    <!-- Mahasiswa Links -->
    <line x1="175" y1="310" x2="430" y2="140" fill="none" stroke="#000000" stroke-width="1.5" />
    <line x1="175" y1="310" x2="430" y2="220" fill="none" stroke="#000000" stroke-width="1.5" />
    <line x1="175" y1="310" x2="430" y2="300" fill="none" stroke="#000000" stroke-width="1.5" />

    <!-- Admin Jurusan Links -->
    <line x1="1025" y1="460" x2="770" y2="380" fill="none" stroke="#000000" stroke-width="1.5" />
    <line x1="1025" y1="460" x2="770" y2="460" fill="none" stroke="#000000" stroke-width="1.5" />

    <!-- Staf ULT Links -->
    <line x1="1025" y1="160" x2="770" y2="540" fill="none" stroke="#000000" stroke-width="1.5" />
    <line x1="1025" y1="160" x2="770" y2="620" fill="none" stroke="#000000" stroke-width="1.5" />
    <line x1="1025" y1="160" x2="770" y2="700" fill="none" stroke="#000000" stroke-width="1.5" />

    <!-- Signer Links -->
    <line x1="1025" y1="760" x2="770" y2="780" fill="none" stroke="#000000" stroke-width="1.5" />

    <!-- Admin Utama Links -->
    <line x1="175" y1="710" x2="430" y2="860" fill="none" stroke="#000000" stroke-width="1.5" />

</svg>
