<?xml version="1.0" encoding="UTF-8" standalone="no"?>
<svg width="1000" height="1400" xmlns="http://www.w3.org/2000/svg" style="background-color: #ffffff;">

    <!-- ARROWS (Drawn with explicit polygons to fix JPG renderer ignoring <marker>) -->
    
    <line x1="500" y1="90" x2="500" y2="130" fill="none" stroke="#000000" stroke-width="2" />
    <polygon points="495,120 505,120 500,130" fill="#000000" />

    <line x1="500" y1="210" x2="500" y2="250" fill="none" stroke="#000000" stroke-width="2" />
    <polygon points="495,240 505,240 500,250" fill="#000000" />

    <line x1="500" y1="330" x2="500" y2="370" fill="none" stroke="#000000" stroke-width="2" />
    <polygon points="495,360 505,360 500,370" fill="#000000" />
    
    <!-- Decision Yes -->
    <line x1="500" y1="470" x2="500" y2="510" fill="none" stroke="#000000" stroke-width="2" />
    <polygon points="495,500 505,500 500,510" fill="#000000" />
    <text x="510" y="495" font-family="'Times New Roman', Georgia, serif" font-size="16px" font-weight="bold" fill="#000000">Ya</text>
    
    <!-- Decision No -->
    <line x1="570" y1="420" x2="750" y2="420" fill="none" stroke="#000000" stroke-width="2" />
    <polygon points="740,415 740,425 750,420" fill="#000000" />
    <text x="650" y="410" font-family="'Times New Roman', Georgia, serif" font-size="16px" font-weight="bold" fill="#000000" text-anchor="middle">Tidak (Revisi)</text>
    
    <path d="M 825 450 L 825 1290 L 570 1290" fill="none" stroke="#000000" stroke-width="2" stroke-dasharray="6,6" />
    <polygon points="580,1285 580,1295 570,1290" fill="#000000" />

    <line x1="500" y1="590" x2="500" y2="630" fill="none" stroke="#000000" stroke-width="2" />
    <polygon points="495,620 505,620 500,630" fill="#000000" />

    <line x1="500" y1="710" x2="500" y2="750" fill="none" stroke="#000000" stroke-width="2" />
    <polygon points="495,740 505,740 500,750" fill="#000000" />

    <line x1="500" y1="830" x2="500" y2="870" fill="none" stroke="#000000" stroke-width="2" />
    <polygon points="495,860 505,860 500,870" fill="#000000" />

    <line x1="500" y1="970" x2="500" y2="1010" fill="none" stroke="#000000" stroke-width="2" />
    <polygon points="495,1000 505,1000 500,1010" fill="#000000" />

    <line x1="500" y1="1090" x2="500" y2="1130" fill="none" stroke="#000000" stroke-width="2" />
    <polygon points="495,1120 505,1120 500,1130" fill="#000000" />

    <line x1="500" y1="1210" x2="500" y2="1270" fill="none" stroke="#000000" stroke-width="2" />
    <polygon points="495,1260 505,1260 500,1270" fill="#000000" />

    <!-- NODES -->
    <g transform="translate(500, 70)">
        <rect x="-70" y="-20" width="140" height="40" rx="20" ry="20" fill="#ffffff" stroke="#000000" stroke-width="2" />
        <text x="0" y="6" font-family="'Times New Roman', Georgia, serif" font-size="18px" font-weight="bold" fill="#000000" text-anchor="middle">MULAI</text>
    </g>

    <g transform="translate(500, 170)">
        <rect x="-250" y="-40" width="500" height="80" fill="#ffffff" stroke="#000000" stroke-width="2" />
        <text x="0" y="-5" font-family="'Times New Roman', Georgia, serif" font-size="18px" font-weight="bold" fill="#000000" text-anchor="middle">1. Pengisian Form Dinamis (Mahasiswa)</text>
        <text x="0" y="20" font-family="'Times New Roman', Georgia, serif" font-size="16px" fill="#000000" text-anchor="middle">Input isian teks kaya (Rich Text HTML) via Tiptap Editor</text>
    </g>

    <g transform="translate(500, 290)">
        <rect x="-250" y="-40" width="500" height="80" fill="#ffffff" stroke="#000000" stroke-width="2" />
        <text x="0" y="-5" font-family="'Times New Roman', Georgia, serif" font-size="18px" font-weight="bold" fill="#000000" text-anchor="middle">2. Pengecekan Pertama Berkas (Admin Jurusan)</text>
        <text x="0" y="20" font-family="'Times New Roman', Georgia, serif" font-size="16px" fill="#000000" text-anchor="middle">Verifikasi kelayakan &amp; kelengkapan dokumen ajuan</text>
    </g>

    <g transform="translate(500, 420)">
        <path d="M 0 -50 L 70 0 L 0 50 L -70 0 Z" fill="#ffffff" stroke="#000000" stroke-width="2" />
        <text x="0" y="6" font-family="'Times New Roman', Georgia, serif" font-size="18px" font-weight="bold" fill="#000000" text-anchor="middle">Layak?</text>
    </g>

    <g transform="translate(500, 550)">
        <rect x="-250" y="-40" width="500" height="80" fill="#ffffff" stroke="#000000" stroke-width="2" />
        <text x="0" y="-5" font-family="'Times New Roman', Georgia, serif" font-size="18px" font-weight="bold" fill="#000000" text-anchor="middle">3. Pemberian Nomor Surat Otomatis</text>
        <text x="0" y="20" font-family="'Times New Roman', Georgia, serif" font-size="16px" fill="#000000" text-anchor="middle">Nomor diterbitkan otomatis sesuai format jurusan</text>
    </g>

    <g transform="translate(500, 670)">
        <rect x="-250" y="-40" width="500" height="80" fill="#ffffff" stroke="#000000" stroke-width="2" />
        <text x="0" y="-5" font-family="'Times New Roman', Georgia, serif" font-size="18px" font-weight="bold" fill="#000000" text-anchor="middle">4. Review &amp; Validasi ULT (Staf ULT)</text>
        <text x="0" y="20" font-family="'Times New Roman', Georgia, serif" font-size="16px" fill="#000000" text-anchor="middle">Validasi keabsahan berkas &amp; proses lanjut</text>
    </g>

    <g transform="translate(500, 790)">
        <rect x="-250" y="-40" width="500" height="80" fill="#ffffff" stroke="#000000" stroke-width="2" />
        <text x="0" y="-5" font-family="'Times New Roman', Georgia, serif" font-size="18px" font-weight="bold" fill="#000000" text-anchor="middle">5. Verifikasi &amp; TTD Elektronik (Pejabat)</text>
        <text x="0" y="20" font-family="'Times New Roman', Georgia, serif" font-size="16px" fill="#000000" text-anchor="middle">Persetujuan &amp; penandatanganan dokumen digital</text>
    </g>

    <g transform="translate(500, 920)">
        <rect x="-250" y="-50" width="500" height="100" fill="#ffffff" stroke="#000000" stroke-width="2" />
        <text x="0" y="-20" font-family="'Times New Roman', Georgia, serif" font-size="18px" font-weight="bold" fill="#000000" text-anchor="middle">6. Perakitan Dokumen Otomatis (Assembly Core)</text>
        <text x="0" y="5" font-family="'Times New Roman', Georgia, serif" font-size="16px" fill="#000000" text-anchor="middle">Parser HTML-to-OpenXML menerjemahkan tag Tiptap,</text>
        <text x="0" y="30" font-family="'Times New Roman', Georgia, serif" font-size="16px" fill="#000000" text-anchor="middle">mengkloning run asli placeholder, &amp; merakit .docx</text>
    </g>

    <g transform="translate(500, 1050)">
        <rect x="-250" y="-40" width="500" height="80" fill="#ffffff" stroke="#000000" stroke-width="2" />
        <text x="0" y="-5" font-family="'Times New Roman', Georgia, serif" font-size="18px" font-weight="bold" fill="#000000" text-anchor="middle">7. Penyimpanan Berkas &amp; Audit Trail</text>
        <text x="0" y="20" font-family="'Times New Roman', Georgia, serif" font-size="16px" fill="#000000" text-anchor="middle">Menyimpan hasil ke Private Disk, log aksi ke DB</text>
    </g>

    <g transform="translate(500, 1170)">
        <rect x="-250" y="-40" width="500" height="80" fill="#ffffff" stroke="#000000" stroke-width="2" />
        <text x="0" y="-5" font-family="'Times New Roman', Georgia, serif" font-size="18px" font-weight="bold" fill="#000000" text-anchor="middle">8. Unduh Berkas Privat (Mahasiswa)</text>
        <text x="0" y="20" font-family="'Times New Roman', Georgia, serif" font-size="16px" fill="#000000" text-anchor="middle">Akses aman via anti-IDOR middleware</text>
    </g>

    <g transform="translate(500, 1290)">
        <rect x="-70" y="-20" width="140" height="40" rx="20" ry="20" fill="#ffffff" stroke="#000000" stroke-width="2" />
        <text x="0" y="6" font-family="'Times New Roman', Georgia, serif" font-size="18px" font-weight="bold" fill="#000000" text-anchor="middle">SELESAI</text>
    </g>

    <g transform="translate(825, 420)">
        <rect x="-75" y="-30" width="150" height="60" fill="#ffffff" stroke="#000000" stroke-width="2" />
        <text x="0" y="6" font-family="'Times New Roman', Georgia, serif" font-size="18px" font-weight="bold" fill="#000000" text-anchor="middle">Ditolak / Draft</text>
    </g>

</svg>
