<?xml version="1.0" encoding="UTF-8" standalone="no"?>
<svg width="5200" height="2900" xmlns="http://www.w3.org/2000/svg" style="background-color: #ffffff;">
    <defs>
        <marker id="seq-arrow" viewBox="0 0 10 10" refX="8" refY="5" markerWidth="8" markerHeight="8" orient="auto-start-reverse">
            <path d="M 0 0 L 10 5 L 0 10 z" fill="#000000" />
        </marker>
    </defs>

    <!-- LIFELINE HEADERS -->
    <g transform="translate(300, 50)">
        <rect x="-225" y="-50" width="450" height="100" fill="#000000" stroke="#000000" stroke-width="4" />
        <text x="0" y="15" font-family="'Times New Roman', Georgia, serif" font-size="50px" font-weight="bold" fill="#ffffff" text-anchor="middle">Staf ULT / User</text>
        <line x1="0" y1="50" x2="0" y2="2800" fill="none" stroke="#000000" stroke-width="4" stroke-dasharray="12,12" />
    </g>

    <g transform="translate(1500, 50)">
        <rect x="-250" y="-50" width="500" height="100" fill="#000000" stroke="#000000" stroke-width="4" />
        <text x="0" y="15" font-family="'Times New Roman', Georgia, serif" font-size="50px" font-weight="bold" fill="#ffffff" text-anchor="middle">RequestController</text>
        <line x1="0" y1="50" x2="0" y2="2800" fill="none" stroke="#000000" stroke-width="4" stroke-dasharray="12,12" />
    </g>

    <g transform="translate(2700, 50)">
        <rect x="-350" y="-50" width="700" height="100" fill="#000000" stroke="#000000" stroke-width="4" />
        <text x="0" y="15" font-family="'Times New Roman', Georgia, serif" font-size="50px" font-weight="bold" fill="#ffffff" text-anchor="middle">DocumentAssemblerService</text>
        <line x1="0" y1="50" x2="0" y2="2800" fill="none" stroke="#000000" stroke-width="4" stroke-dasharray="12,12" />
    </g>

    <g transform="translate(3900, 50)">
        <rect x="-275" y="-50" width="550" height="100" fill="#000000" stroke="#000000" stroke-width="4" />
        <text x="0" y="15" font-family="'Times New Roman', Georgia, serif" font-size="50px" font-weight="bold" fill="#ffffff" text-anchor="middle">HtmlToOpenXMLParser</text>
        <line x1="0" y1="50" x2="0" y2="2800" fill="none" stroke="#000000" stroke-width="4" stroke-dasharray="12,12" />
    </g>

    <g transform="translate(4800, 50)">
        <rect x="-225" y="-50" width="450" height="100" fill="#000000" stroke="#000000" stroke-width="4" />
        <text x="0" y="15" font-family="'Times New Roman', Georgia, serif" font-size="50px" font-weight="bold" fill="#ffffff" text-anchor="middle">Private Storage</text>
        <line x1="0" y1="50" x2="0" y2="2800" fill="none" stroke="#000000" stroke-width="4" stroke-dasharray="12,12" />
    </g>

    <!-- ACTIVATIONS -->
    <rect x="270" y="200" width="60" height="2600" fill="#f0f0f0" stroke="#000000" stroke-width="4" />
    <rect x="1470" y="200" width="60" height="2400" fill="#f0f0f0" stroke="#000000" stroke-width="4" />
    <rect x="2670" y="550" width="60" height="1850" fill="#f0f0f0" stroke="#000000" stroke-width="4" />
    <rect x="3870" y="1000" width="60" height="750" fill="#f0f0f0" stroke="#000000" stroke-width="4" />
    <rect x="4770" y="2050" width="60" height="350" fill="#f0f0f0" stroke="#000000" stroke-width="4" />

    <!-- SEQUENCE ACTIONS -->
    <line x1="330" y1="400" x2="1470" y2="400" fill="none" stroke="#000000" stroke-width="6" />
    <polygon points="1440,385 1440,415 1470,400" fill="#000000" />
    <text x="370" y="370" font-family="'Times New Roman', Georgia, serif" font-size="60px" fill="#000000">1. clickAssemble(requestId)</text>

    <line x1="1530" y1="600" x2="2670" y2="600" fill="none" stroke="#000000" stroke-width="6" />
    <polygon points="2640,585 2640,615 2670,600" fill="#000000" />
    <text x="1570" y="570" font-family="'Times New Roman', Georgia, serif" font-size="60px" fill="#000000">2. assembleDocument(requestId)</text>

    <path d="M 2730 720 C 2900 720, 2900 800, 2730 800" fill="none" stroke="#000000" stroke-width="6" />
    <polygon points="2760,785 2760,815 2730,800" fill="#000000" />
    <text x="2930" y="770" font-family="'Times New Roman', Georgia, serif" font-size="60px" fill="#000000">3. loadTemplateAndFormData()</text>

    <line x1="2730" y1="1060" x2="3870" y2="1060" fill="none" stroke="#000000" stroke-width="6" />
    <polygon points="3840,1045 3840,1075 3870,1060" fill="#000000" />
    <text x="2770" y="940" font-family="'Times New Roman', Georgia, serif" font-size="60px" fill="#000000">4. writeHtmlToWordRun(</text>
    <text x="2770" y="1010" font-family="'Times New Roman', Georgia, serif" font-size="60px" fill="#000000">   htmlString, placeholderRun)</text>

    <path d="M 3930 1180 C 4100 1180, 4100 1260, 3930 1260" fill="none" stroke="#000000" stroke-width="6" />
    <polygon points="3960,1245 3960,1275 3930,1260" fill="#000000" />
    <text x="4130" y="1230" font-family="'Times New Roman', Georgia, serif" font-size="60px" fill="#000000">5. traverseHtmlAndInsertRuns()</text>

    <path d="M 3930 1380 C 4100 1380, 4100 1460, 3930 1460" fill="none" stroke="#000000" stroke-width="6" />
    <polygon points="3960,1445 3960,1475 3930,1460" fill="#000000" />
    <text x="4130" y="1430" font-family="'Times New Roman', Georgia, serif" font-size="60px" fill="#000000">6. cloneRunPropertiesAndFormat()</text>

    <line x1="3870" y1="1660" x2="2730" y2="1660" fill="none" stroke="#000000" stroke-width="6" stroke-dasharray="15,10" />
    <polygon points="2760,1645 2760,1675 2730,1660" fill="#000000" />
    <text x="2770" y="1630" font-family="'Times New Roman', Georgia, serif" font-size="60px" font-style="italic" fill="#000000">7. return parsedOpenXMLRuns</text>

    <path d="M 2730 1780 C 2900 1780, 2900 1860, 2730 1860" fill="none" stroke="#000000" stroke-width="6" />
    <polygon points="2760,1845 2760,1875 2730,1860" fill="#000000" />
    <text x="2930" y="1830" font-family="'Times New Roman', Georgia, serif" font-size="60px" fill="#000000">8. compileAndZipArchive()</text>

    <line x1="2730" y1="2120" x2="4770" y2="2120" fill="none" stroke="#000000" stroke-width="6" />
    <polygon points="4740,2105 4740,2135 4770,2120" fill="#000000" />
    <text x="2770" y="2000" font-family="'Times New Roman', Georgia, serif" font-size="60px" fill="#000000">9. putFileInPrivateDisk(</text>
    <text x="2770" y="2070" font-family="'Times New Roman', Georgia, serif" font-size="60px" fill="#000000">   filename, docxContent)</text>

    <line x1="4770" y1="2320" x2="2730" y2="2320" fill="none" stroke="#000000" stroke-width="6" stroke-dasharray="15,10" />
    <polygon points="2760,2305 2760,2335 2730,2320" fill="#000000" />
    <text x="2770" y="2290" font-family="'Times New Roman', Georgia, serif" font-size="60px" font-style="italic" fill="#000000">10. return saveSuccess</text>

    <line x1="2670" y1="2520" x2="1530" y2="2520" fill="none" stroke="#000000" stroke-width="6" stroke-dasharray="15,10" />
    <polygon points="1560,2505 1560,2535 1530,2520" fill="#000000" />
    <text x="1570" y="2490" font-family="'Times New Roman', Georgia, serif" font-size="60px" font-style="italic" fill="#000000">11. return successResponse</text>

    <line x1="1470" y1="2720" x2="330" y2="2720" fill="none" stroke="#000000" stroke-width="6" stroke-dasharray="15,10" />
    <polygon points="360,2705 360,2735 330,2720" fill="#000000" />
    <text x="370" y="2690" font-family="'Times New Roman', Georgia, serif" font-size="60px" font-style="italic" fill="#000000">12. redirectWithSuccessToast()</text>
</svg>
